<svg width="600" height="600" viewBox="0 0 600 600" fill="none" xmlns="http://www.w3.org/2000/svg">
  <rect width="600" height="600" fill="#FAF7F2"/>
  <path d="M120 130 C120 130 155 95 300 95 C445 95 480 130 480 130 L520 175 L465 205 L445 175 L445 480 C445 500 425 515 300 515 C175 515 155 500 155 480 L155 175 L135 205 L80 175 L120 130Z" fill="#FFDF00" stroke="#009C3B" stroke-width="3"/>
  <path d="M230 95 C230 95 250 125 300 125 C350 125 370 95 370 95" stroke="#009C3B" stroke-width="3" fill="none"/>
  <path d="M120 130 L80 175 L135 205" fill="#F5D000" stroke="#009C3B" stroke-width="3" stroke-linejoin="round"/>
  <path d="M480 130 L520 175 L465 205" fill="#F5D000" stroke="#009C3B" stroke-width="3" stroke-linejoin="round"/>
  <circle cx="300" cy="278" r="42" fill="#009C3B" opacity="0.15"/>
  <circle cx="300" cy="278" r="28" fill="none" stroke="#009C3B" stroke-width="2"/>
  <text x="300" y="288" text-anchor="middle" font-family="Impact, Arial Black, sans-serif" font-size="38" font-weight="900" fill="#009C3B" letter-spacing="3">BRASIL</text>
  <text x="300" y="340" text-anchor="middle" font-family="Arial, sans-serif" font-size="14" font-weight="700" fill="#002776" letter-spacing="4">★ ★ ★ ★ ★</text>
</svg>
